<?xml version="1.0" encoding="utf-8"?>
<!-- Generator: Adobe Illustrator 27.5.0, SVG Export Plug-In . SVG Version: 6.00 Build 0)  -->
<svg version="1.1" xmlns="http://www.w3.org/2000/svg" xmlns:xlink="http://www.w3.org/1999/xlink" x="0px" y="0px"
	 viewBox="0 0 500 500" style="enable-background:new 0 0 500 500;" xml:space="preserve">
<g id="BACKGROUND">
	<path style="fill:#DFF1F2;" d="M126.267,398.066c-15.463,2.275-31.127,3.18-46.749,2.692c-9.139-0.286-18.423-1.082-26.928-4.441
		c-15.715-6.208-27.436-21.53-29.316-38.323c-0.618-5.527-0.248-11.117,0.359-16.645c0.634-5.776,1.547-11.6,3.867-16.927
		c5.973-13.718,19.608-21.678,28.298-33.39c9.89-13.329,11.439-27.735,10.078-44.222c-1.492-18.075-5.611-36.43-1.624-54.124
		c1.771-7.859,5.29-15.571,11.34-20.891c15.762-13.863,41.809-7.007,59.322-18.579c20.632-13.633,22.347-47.946,45.43-56.818
		c11.11-4.27,23.655-0.839,34.563,3.924c10.908,4.763,21.536,10.923,33.362,12.271c13.659,1.557,27.097-3.493,40.689-5.548
		c14.642-2.213,30.059-0.825,43.401,5.599c13.342,6.424,24.381,18.187,28.358,32.451c1.96,7.031,2.219,14.485,4.585,21.389
		c3.451,10.071,11.008,17.822,19.31,24.155c8.344,6.365,17.787,9.468,26.213,15.36c16.713,11.687,27.842,31.104,29.482,51.43
		c0.678,8.4-0.131,16.889,0.907,25.252c1.375,11.08,5.971,21.575,12.005,30.97c3.968,6.18,8.56,11.934,12.712,17.992
		c6.651,9.703,12.28,20.547,13.279,32.268c0.999,11.721-3.445,24.447-13.328,30.828c-9.336,6.028-21.374,5.444-32.372,3.849
		c-14.138-2.051-28.062-5.406-42.242-7.187c-13.974-1.755-28.081-1.274-42.09-0.688c-31.099,1.301-62.222,2.154-93.35,2.154
		c-22.335,0.073-44.665-0.521-67-0.612c-9.495-0.039-18.983,0.346-28.472,0.635c-8.793,0.268-16.319,2.087-24.953,3.668
		C132.367,397.114,129.321,397.617,126.267,398.066z"/>
</g>
<g id="OBJECTS">
	<g>
		<g>
			<defs>
				<path id="SVGID_1_" d="M211.548,311.716c-2.124,14.903-2.895,30.097-6.161,44.801c-0.715,3.219-1.218,6.763-3.403,9.301
					c2.332-13.555,2.661-27.492-0.03-40.974c-1.231-6.164-3.659-12.219-7.863-16.892c-2.708-3.01-6.111-5.413-8.371-8.772
					c-2.26-3.36-3.047-8.268-0.309-11.251c-0.429,0.467-4.034-1.536-4.519-1.821c-1.49-0.876-2.844-1.98-4.013-3.253
					c-2.554-2.783-4.144-6.164-4.364-9.947c-0.074-1.27,0.428-2.982,1.698-2.896c-1.884-1.569-3.782-3.153-5.298-5.08
					c-1.718-2.184-2.826-4.768-2.711-7.576c0.115-2.791,1.034-3.418,3.553-4.386c-0.462-1.439-1.013-2.813-1.215-4.341
					c-0.194-1.473-0.148-3.042,0.564-4.346c0.751-1.374,2.237-2.317,3.8-2.409c1.563-0.092,3.15,0.668,4.058,1.944
					c0.299-1.649,2.09-2.714,3.765-2.666c1.675,0.048,3.206,0.961,4.495,2.031c3.512,2.915,4.554,6.895,6.229,10.99
					c2.099-0.979,4.711-0.249,6.417,1.317c1.706,1.566,2.633,3.815,3.157,6.07c0.837,3.605,0.766,7.351,0.691,11.052
					c1.472-1.147,3.72-0.86,5.187,0.293c1.468,1.153,2.262,2.977,2.65,4.803c1.076,5.053-0.547,10.272-2.513,15.05
					c1.387-0.782,3.238-0.301,4.381,0.808c4.122,3.998,1.063,11.813,0.349,16.593C211.698,310.678,211.622,311.197,211.548,311.716z
					"/>
			</defs>
			<use xlink:href="#SVGID_1_"  style="overflow:visible;fill:#008F57;"/>
			<clipPath id="SVGID_00000085931717486158431640000010748192213921625741_">
				<use xlink:href="#SVGID_1_"  style="overflow:visible;"/>
			</clipPath>
			
				<path style="clip-path:url(#SVGID_00000085931717486158431640000010748192213921625741_);fill:none;stroke:#79BF4C;stroke-miterlimit:10;" d="
				M201.984,365.819c7.938-40.852,3.9-65.83-10.107-91.124c-14.008-25.295-29.869-47.292-29.869-47.292"/>
		</g>
		<g>
			<defs>
				<path id="SVGID_00000090259211934185606120000010152940608136313729_" d="M170.319,286.039c3.102,1.549,6.085,3.337,8.92,5.333
					c26.945,18.969,37.419,55.136,35.186,86.844c-6.358-14.752-15.534-29.31-27.572-40.058c-7.302-6.52-13.539-13.696-20.477-20.566
					c-12.281-12.16-18.234-30.391-15.497-47.455C153.043,278.531,162.565,282.167,170.319,286.039z"/>
			</defs>
			<use xlink:href="#SVGID_00000090259211934185606120000010152940608136313729_"  style="overflow:visible;fill:#29BAA3;"/>
			<clipPath id="SVGID_00000011006123008251492340000007217741407253805728_">
				<use xlink:href="#SVGID_00000090259211934185606120000010152940608136313729_"  style="overflow:visible;"/>
			</clipPath>
			
				<path style="clip-path:url(#SVGID_00000011006123008251492340000007217741407253805728_);fill:none;stroke:#4FD3B9;stroke-miterlimit:10;" d="
				M214.39,379.706c-5.028-22.458-16.551-42.737-29.926-61.231c-12.396-17.141-31.348-33.548-35.968-54.991"/>
		</g>
		<g>
			<defs>
				<path id="SVGID_00000171681066420817193670000006065811130924165811_" d="M275.212,317.682
					c6.248,11.437,11.486,23.521,18.599,34.449c1.558,2.393,3.041,5.112,5.583,6.507c-6.007-10.281-10.506-21.48-12.418-33.227
					c-0.874-5.371-0.744-11.017,1.245-16.082c1.281-3.263,3.31-6.244,4.123-9.654c0.812-3.41-0.041-7.628-3.166-9.215
					c0.49,0.249,2.804-2.47,3.11-2.848c0.942-1.162,1.705-2.469,2.265-3.856c1.225-3.032,1.488-6.256,0.517-9.389
					c-0.326-1.052-1.253-2.287-2.256-1.832c1.051-1.844,2.109-3.705,2.752-5.727c0.729-2.292,0.844-4.723-0.103-6.965
					c-0.941-2.228-1.876-2.457-4.213-2.477c-0.062-1.307-0.033-2.589-0.333-3.888c-0.29-1.253-0.804-2.511-1.777-3.351
					c-1.026-0.886-2.517-1.199-3.813-0.799c-1.295,0.4-2.351,1.499-2.699,2.809c-0.743-1.246-2.518-1.566-3.862-1.018
					c-1.343,0.548-2.307,1.753-3.028,3.012c-1.962,3.429-1.598,6.972-1.712,10.801c-1.999-0.157-3.895,1.229-4.802,3.016
					c-0.908,1.788-0.977,3.892-0.716,5.88c0.417,3.177,1.611,6.192,2.796,9.169c-1.542-0.483-3.277,0.432-4.116,1.812
					c-0.84,1.38-0.93,3.101-0.69,4.698c0.662,4.423,3.563,8.162,6.607,11.438c-1.362-0.213-2.716,0.74-3.306,1.985
					c-2.128,4.492,2.725,9.9,4.756,13.558C274.775,316.885,274.994,317.283,275.212,317.682z"/>
			</defs>
			<use xlink:href="#SVGID_00000171681066420817193670000006065811130924165811_"  style="overflow:visible;fill:#79BF4C;"/>
			<clipPath id="SVGID_00000157292975352845154010000016892614947721181102_">
				<use xlink:href="#SVGID_00000171681066420817193670000006065811130924165811_"  style="overflow:visible;"/>
			</clipPath>
			
				<path style="clip-path:url(#SVGID_00000157292975352845154010000016892614947721181102_);fill:none;stroke:#008F57;stroke-miterlimit:10;" d="
				M299.395,358.638c-18.841-30.708-23.152-52.184-19.478-76.944c3.675-24.76,9.854-47.41,9.854-47.41"/>
		</g>
		<g>
			<defs>
				<path id="SVGID_00000173856028255459479880000012171359530603840168_" d="M247.101,259.544c3.234,1.991,6.314,4.232,9.213,6.685
					c27.552,23.311,35.464,63.783,29.949,98.157c-5.503-16.711-14.099-33.483-26.187-46.378
					c-7.332-7.822-13.439-16.256-20.34-24.424c-12.215-14.459-16.939-34.925-12.295-53.275
					C228.984,249.676,239.018,254.568,247.101,259.544z"/>
			</defs>
			<use xlink:href="#SVGID_00000173856028255459479880000012171359530603840168_"  style="overflow:visible;fill:#4FD3B9;"/>
			<clipPath id="SVGID_00000030463501460182964520000007991675432244524211_">
				<use xlink:href="#SVGID_00000173856028255459479880000012171359530603840168_"  style="overflow:visible;"/>
			</clipPath>
			
				<path style="clip-path:url(#SVGID_00000030463501460182964520000007991675432244524211_);fill:none;stroke:#29BAA3;stroke-miterlimit:10;" d="
				M286.08,366.007c-3.303-24.987-13.904-48.23-26.699-69.705c-11.858-19.903-30.939-39.643-33.896-63.484"/>
		</g>
		<g>
			<defs>
				<path id="SVGID_00000105397130524546999930000008478713498783825042_" d="M300.007,281.255c-2.413,3.053-4.59,6.291-6.518,9.671
					c-18.327,32.115-11.723,73.847,5.662,104.992c-0.575-18.017,1.806-37.179,8.91-53.836c4.309-10.104,7.223-20.367,10.996-30.653
					c6.677-18.207,4.032-39.564-6.884-55.593C313.976,265.392,306.038,273.625,300.007,281.255z"/>
			</defs>
			<use xlink:href="#SVGID_00000105397130524546999930000008478713498783825042_"  style="overflow:visible;fill:#29BAA3;"/>
			<clipPath id="SVGID_00000173148182662210351840000014230075638707455105_">
				<use xlink:href="#SVGID_00000105397130524546999930000008478713498783825042_"  style="overflow:visible;"/>
			</clipPath>
			
				<path style="clip-path:url(#SVGID_00000173148182662210351840000014230075638707455105_);fill:none;stroke:#4FD3B9;stroke-miterlimit:10;" d="
				M299.896,397.413c-5.6-25.209-3.563-51.304,1.206-76.466c4.42-23.321,15.849-49.023,10.319-73.008"/>
		</g>
		<g>
			<defs>
				<path id="SVGID_00000150068745955906068400000017364795109327339942_" d="M239.896,287.354c-1.906,2.46-3.622,5.066-5.139,7.783
					c-14.411,25.822-8.81,59.144,5.331,83.918c-0.598-14.403,1.16-29.746,6.713-43.121c3.368-8.113,5.62-16.342,8.558-24.597
					c5.2-14.611,2.922-31.67-5.93-44.405C250.945,274.561,244.66,281.206,239.896,287.354z"/>
			</defs>
			<use xlink:href="#SVGID_00000150068745955906068400000017364795109327339942_"  style="overflow:visible;fill:#29BAA3;"/>
			<clipPath id="SVGID_00000090292375312613130850000009019481332806469307_">
				<use xlink:href="#SVGID_00000150068745955906068400000017364795109327339942_"  style="overflow:visible;"/>
			</clipPath>
			
				<path style="clip-path:url(#SVGID_00000090292375312613130850000009019481332806469307_);fill:none;stroke:#4FD3B9;stroke-miterlimit:10;" d="
				M240.696,380.245c-4.671-20.117-3.242-41,0.38-61.159c3.356-18.684,12.299-39.325,7.693-58.463"/>
		</g>
		<g>
			<defs>
				<path id="SVGID_00000121983369066162019430000002439443748050143921_" d="M205.242,330.746
					c3.05,13.223,4.906,26.812,8.967,39.768c0.889,2.837,1.613,5.981,3.769,8.094c-3.134-11.996-4.497-24.49-3.113-36.805
					c0.633-5.631,2.35-11.255,5.768-15.775c2.201-2.912,5.074-5.33,6.847-8.521c1.773-3.191,2.103-7.66-0.585-10.129
					c0.421,0.387,3.505-1.688,3.919-1.982c1.271-0.901,2.403-1.997,3.355-3.229c2.081-2.696,3.25-5.854,3.158-9.269
					c-0.031-1.147-0.613-2.646-1.747-2.471c1.572-1.554,3.156-3.122,4.369-4.969c1.375-2.093,2.173-4.499,1.854-7.013
					c-0.317-2.498-1.191-2.991-3.528-3.667c0.305-1.328,0.694-2.605,0.758-3.992c0.062-1.338-0.1-2.743-0.84-3.86
					c-0.779-1.177-2.187-1.909-3.598-1.873c-1.411,0.037-2.778,0.842-3.496,2.058c-0.395-1.458-2.085-2.278-3.586-2.106
					c-1.501,0.172-2.806,1.109-3.882,2.169c-2.931,2.887-3.562,6.542-4.753,10.348c-1.96-0.719-4.25,0.137-5.663,1.675
					c-1.413,1.537-2.073,3.628-2.37,5.694c-0.475,3.303-0.125,6.662,0.226,9.98c-1.41-0.917-3.407-0.488-4.637,0.66
					c-1.23,1.148-1.803,2.848-2.013,4.517c-0.579,4.621,1.279,9.185,3.41,13.326c-1.306-0.596-2.931-0.022-3.873,1.062
					c-3.396,3.906-0.05,10.692,0.958,14.931C205.028,329.825,205.135,330.285,205.242,330.746z"/>
			</defs>
			<use xlink:href="#SVGID_00000121983369066162019430000002439443748050143921_"  style="overflow:visible;fill:#79BF4C;"/>
			<clipPath id="SVGID_00000131341785282724321210000007513104719088119728_">
				<use xlink:href="#SVGID_00000121983369066162019430000002439443748050143921_"  style="overflow:visible;"/>
			</clipPath>
			
				<path style="clip-path:url(#SVGID_00000131341785282724321210000007513104719088119728_);fill:none;stroke:#008F57;stroke-miterlimit:10;" d="
				M217.978,378.608c-10.261-36.085-8.548-58.83,2.095-82.623c10.643-23.793,23.204-44.767,23.204-44.767"/>
		</g>
	</g>
	<rect y="383.655" style="fill:#C3DDDD;" width="500" height="116.345"/>
	<g>
		<g>
			<path style="fill:none;stroke:#29BAA3;stroke-miterlimit:10;" d="M310.711,173.93c-0.827,0.1-1.656,0.194-2.484,0.283"/>
			<path style="fill:none;stroke:#29BAA3;stroke-miterlimit:10;stroke-dasharray:5.0086,5.0086;" d="M303.24,174.683
				c-14.101,1.14-28.329,0.712-42.336-1.281c-11.693-1.664-23.799-4.704-32.481-12.711c-3.313-3.055-5.57-8.397-5.045-12.945
				c0.509-4.406,4.038-8.511,8.452-8.941c11.823-1.152,19.421,12.805,21.533,22.523c2.418,11.127,1.183,26.256-9.812,32.562
				c-5.828,3.342-14.467,2.128-17.693-3.764c-0.702-1.282-1.129-2.771-0.879-4.212c0.523-3.013,4.081-4.862,7.055-4.148
				c2.973,0.714,5.172,3.421,6,6.365c0.827,2.944,0.486,6.091-0.163,9.079c-0.702,3.232-1.775,6.425-3.594,9.187
				c-4.647,7.058-13.701,10.31-22.134,9.763c-7.887-0.512-11.815-6.302-16.934-11.542c-7.326-7.498-16.392-10.269-26.715-9.694
				c-8.094,0.451-15.618,4.078-23.414,6.298c-7.796,2.22-16.899,2.805-23.329-2.131c-2.271-1.743-4.164-4.507-3.574-7.308
				c0.587-2.785,3.527-4.593,6.371-4.728c2.843-0.135,5.578,1.043,8.09,2.382c2.294,1.223,4.559,2.648,6.136,4.715
				c2.808,3.68,2.963,8.758,2.139,13.313c-2.44,13.492-12.243,24.704-23.712,32.215c-2.432,1.593-5.052,3.152-6.531,5.656
				c-2.595,4.394-0.746,10.16,2.333,14.229c3.079,4.069,7.27,7.227,10.129,11.453c7.727,11.423,2.276,23.401-5.55,32.708
				c-2.854,3.395-6.815,5.9-11.108,6.929"/>
			<path style="fill:none;stroke:#29BAA3;stroke-miterlimit:10;" d="M104.004,311.078c-0.828,0.085-1.663,0.113-2.499,0.081"/>
		</g>
	</g>
	<g>
		<path style="fill:#FAB594;" d="M83.92,293.824c0.08,0.087,0.16,0.174,0.24,0.26c1.551-2.265,3.101-4.53,4.652-6.796
			c1.775-2.593,3.643-5.273,6.369-6.836c0.527-0.302,1.181-0.559,1.722-0.283c1.943,0.992-0.194,5.225-0.795,6.394
			c-2.311,4.496-4.521,9.393-7.373,13.569c-2.751,4.04-7.3,0.662-9.727-1.766c-3.431-3.432-8.91-7.092-9.918-12.175
			c-0.265-1.337,0.476-3.065,1.839-3.056c0.546,0.004,1.046,0.289,1.507,0.58C76.665,286.379,80.525,290.15,83.92,293.824z"/>
		<path style="fill:#EEAF35;" d="M70.568,278.385c2.264,0.678,4.474,2.898,5.556,4.422c0.424,0.596,4.544,4.8,4.569,4.771
			c-2.159,2.508-4.573,4.797-7.193,6.82c-0.148,0.114-0.312,0.233-0.499,0.23c-0.16-0.002-0.303-0.093-0.434-0.184
			c-1.9-1.318-3.177-3.386-4.625-5.119c-2.166-2.59-4.188-8.694-0.307-10.748C68.562,278.086,69.57,278.086,70.568,278.385z"/>
		<polygon style="fill:#FFFFFF;" points="89.473,266.255 102.927,257.781 114.557,277.612 103.14,286.699 		"/>
		<path style="fill:#FAB594;" d="M97.395,283.936c-0.233,0.175-0.43,0.394-0.625,0.612c-0.58,0.647-1.932,2.529-2.985,1.538
			c-0.281-0.264-0.368-0.757-0.659-1.062c-0.359-0.377-0.825-0.684-1.299-0.894c-0.08-0.035-0.17-0.077-0.197-0.161
			c-0.03-0.092,0.031-0.185,0.089-0.263c0.589-0.794,1.254-1.53,1.775-2.373c0.416-0.672,0.352-1.274,0.357-2.007
			c0.015-2.312,0.88-4.568,1.495-6.777c0.143-0.514,0.467-1.799,1.234-1.604c0.19,0.048,0.348,0.186,0.453,0.35
			c0.105,0.165,0.162,0.356,0.2,0.548c0.275,1.388-0.702,2.567-0.816,3.903c-0.075,0.876,0.512,1.664,1.003,2.35
			c0.789,1.103,1.504,2.257,2.471,3.223c0.074,0.087,0.151,0.181,0.162,0.294c0.014,0.14-0.076,0.267-0.161,0.378
			c-0.315,0.412-0.612,0.944-1.03,1.247C98.433,283.55,97.835,283.605,97.395,283.936z"/>
		<path style="fill:#1F143F;" d="M78.315,382.395c0.262,0.02,0.532,0.037,0.771,0.148c0.238,0.112,0.441,0.344,0.433,0.607
			c-0.005,0.148-0.074,0.288-0.164,0.406c-0.474,0.622-1.38,0.658-2.162,0.638c-2.888-0.074-5.776-0.149-8.664-0.223
			c-0.13-0.003-0.263-0.008-0.382-0.061c-0.132-0.059-0.23-0.172-0.313-0.29c-0.595-0.849-0.511-1.996-0.264-3.003
			c0.247-1.007,0.636-2.008,0.569-3.042c-0.024-0.366-0.081-0.797,0.195-1.038c0.125-0.11,0.294-0.152,0.457-0.187
			c0.918-0.197,1.859-0.284,2.797-0.258c-0.105,0-0.06,2.958,0.035,3.246C72.467,381.899,76.055,382.222,78.315,382.395z"/>
		<path style="fill:#1F143F;" d="M65.94,382.395c0.262,0.02,0.532,0.037,0.771,0.148c0.238,0.112,0.441,0.344,0.433,0.607
			c-0.005,0.148-0.074,0.288-0.165,0.406c-0.474,0.622-1.38,0.658-2.162,0.638c-2.888-0.074-5.776-0.149-8.664-0.223
			c-0.13-0.003-0.263-0.008-0.382-0.061c-0.132-0.059-0.23-0.172-0.313-0.29c-0.595-0.849-0.511-1.996-0.264-3.003
			c0.247-1.007,0.636-2.008,0.569-3.042c-0.024-0.366-0.081-0.797,0.195-1.038c0.125-0.11,0.294-0.152,0.457-0.187
			c0.918-0.197,1.859-0.284,2.797-0.258c-0.105,0-0.06,2.958,0.035,3.246C60.091,381.899,63.68,382.222,65.94,382.395z"/>
		<path style="fill:#386E8A;" d="M63.898,312.449c-1.752,0.145-3.481,0.571-5.098,1.262c-4.269,1.823-1.179,11.125-0.261,14.453
			c1.164,4.221,2.328,8.441,3.492,12.662c1.9,6.891,2.871,13.973,3.381,21.098c0.095,1.338,0.937,15.958,1.058,15.96
			c1.944,0.026,3.887,0.051,5.831,0.076c0.515,0.007,1.163-7.768,1.22-8.531c0.217-2.889,0.256-5.781,0.405-8.678
			c0.853-13.228-0.003-26.823-0.539-40.079c-0.089-2.196-0.43-4.477-1.823-6.265c-0.57-0.732-2.133-0.897-2.958-1.217
			c-1.253-0.485-2.267-0.817-3.651-0.793C64.602,312.402,64.249,312.42,63.898,312.449z"/>
		<path style="fill:#0091A2;" d="M51.56,312.865c-0.246,1.272-0.333,2.569-0.42,3.861c-0.802,11.929,0.412,23.876,1.229,35.77
			c0.581,8.462,1.242,16.919,1.725,25.387c1.944,0.026,3.887,0.051,5.831,0.076c0.515,0.007,1.163-7.768,1.22-8.531
			c0.216-2.889,0.256-5.781,0.405-8.678c0-4.609,0.481-9.268,0.712-13.873c0.274-5.458,0.592-10.964,1.245-16.383
			c0.391-3.245,0.871-6.479,1.241-9.727c0.339-2.978,1.154-6.504-0.187-9.319c-0.714-1.499-2.027-2.702-3.582-3.282
			c-1.429-0.533-2.993-0.546-4.518-0.516c-0.818,0.016-1.653,0.046-2.418,0.334C52.137,308.704,51.897,311.118,51.56,312.865z"/>
		<path style="fill:#FFDB49;" d="M71.802,281.969c0.932,3.055,0.764,6.685,0.838,9.634c0.199,7.864,0.398,15.728,0.598,23.592
			c0.012,0.466,0.016,0.961-0.228,1.358c-0.295,0.481-0.875,0.693-1.416,0.851c-4.395,1.282-9.06,1.157-13.636,1.022
			c-2.031-0.06-4.111-0.13-5.996-0.889c-0.353-0.142-0.715-0.323-0.922-0.642c-0.227-0.351-0.224-0.798-0.211-1.216
			c0.196-6.494,0.725-12.977,1.577-19.418c0.671-5.069,0.413-10.575,2.707-15.28c2.213-4.539,7.472-5.929,12.014-4.231
			c1.35,0.505,2.604,1.347,3.419,2.535C71.103,280.096,71.507,281.004,71.802,281.969z"/>
		<path style="fill:#D99D81;" d="M65.348,278.566c-0.954,0.664-2.459,0.564-3.497,0.361c-1.86-0.364-1.893-2.485-1.66-3.982
			c0.185-1.189,0.801-4.58,2.258-4.779c1.563-0.214,3.282,0.663,3.809,2.151c0.246,0.694,0.231,1.448,0.214,2.184
			c-0.027,1.141,0.027,3-0.88,3.866C65.516,278.44,65.434,278.506,65.348,278.566z"/>
		<path style="fill:#FAB594;" d="M60.381,266.093c0.338,1.295,0.023,2.499-0.702,2.688c-0.726,0.189-1.588-0.707-1.925-2.003
			c-0.338-1.295-0.023-2.499,0.702-2.688C59.182,263.901,60.044,264.798,60.381,266.093z"/>
		<path style="fill:#FAB594;" d="M42.459,295.908c-0.635,1.256-1.229,2.534-1.768,3.834c-0.257,0.62-0.434,0.923-0.239,1.588
			c0.203,0.695,0.485,1.376,0.78,2.036c1.155,2.579,2.811,4.896,4.542,7.114c1.353,1.734,2.591,3.553,3.857,5.349
			c1.184,1.68,2.792,3.262,3.294,5.294c1.336,0.193,2.669-0.394,3.78-1.161c0.02-0.014,0.04-0.028,0.053-0.048
			c0.064-0.096-0.071-0.198-0.177-0.245c-0.917-0.403-1.231-1.189-1.605-2.043c-0.486-1.107-1-2.201-1.534-3.285
			c-1.044-2.125-2.162-4.212-3.287-6.295c-0.978-1.809-1.946-3.623-2.912-5.438c-0.418-0.786-0.804-1.218-0.483-2.139
			c0.243-0.698,0.731-1.298,1.146-1.899c1.376-1.994,2.745-3.992,4.128-5.981c0.561-0.806,1.125-1.372,1.396-2.361
			c0.252-0.919,0.228-1.904-0.313-2.719C50.094,282.958,45.3,290.285,42.459,295.908z"/>
		<path style="fill:#FFDB49;" d="M61.27,282.509c-0.152,2.359-1.818,5.011-3.059,6.408c-0.486,0.547-3.656,5.507-3.621,5.525
			c-2.93-1.54-5.703-3.377-8.263-5.475c-0.144-0.118-0.297-0.252-0.337-0.434c-0.034-0.156,0.022-0.316,0.082-0.464
			c0.857-2.148,2.585-3.857,3.947-5.658c2.036-2.693,7.53-6.035,10.404-2.716C61.11,280.487,61.337,281.47,61.27,282.509z"/>
		<path style="fill:#1F143F;" d="M56.021,256.03c-0.032,0.275-0.076,0.548-0.153,0.814c-0.351,1.2-1.292,2.054-2.001,3.041
			c-0.605,0.843-0.782,1.932-0.678,2.948c0.222,2.18,1.427,4.279,2.789,5.948c0.293,0.359,0.625,0.811,1.011,1.072
			c0.446,0.302,1.063,0.483,1.564,0.677c1.424,0.552,2.908,0.949,4.417,1.182c0.742,0.115,1.49,0.183,2.239,0.231
			c0.686,0.044,1.367-0.316,1.995-0.587c0.725-0.312,1.422-0.699,2.029-1.203c0.649-0.539,1.183-1.2,1.703-1.863
			c0.403-0.514,0.809-1.05,0.978-1.681c0.201-0.753,0.047-1.587,0.366-2.298c0.202-0.451,0.573-0.8,0.861-1.201
			c0.956-1.333-0.222-3.064,0.57-4.462c0.492-0.868,1.428-1.373,1.86-2.278c0.409-0.857,0.45-1.899,0.132-2.791
			c-0.527-1.481-1.836-2.563-3.245-3.262c-1.61-0.799-3.681-1.142-5.117-0.06c-0.305,0.23-0.565,0.513-0.856,0.76
			c-2.33,1.983-5.131,0.174-7.742,1.012c-1.083,0.347-2.068,1.133-2.438,2.209C56.107,254.812,56.092,255.427,56.021,256.03z"/>
		<path style="fill:#FAB594;" d="M57.819,266.593c0.256,2.789,1.651,5.514,3.959,7.157c1.766,1.257,4.445,1.995,6.461,0.897
			c2.706-1.474,3.426-5.34,3.497-8.139c0.083-3.31-1.034-7.075-4.166-8.703c-2.202-1.145-5.726-1.424-7.443,0.653
			C58.35,260.608,57.553,263.687,57.819,266.593z"/>
		<path style="fill:#1F143F;" d="M68.437,257.7c-0.689,0.048-1.367,0.26-1.957,0.618c-1.185,0.72-1.954,1.959-3.032,2.831
			c-1.015,0.821-2.263,1.286-3.47,1.786c-0.227,0.094-0.461,0.195-0.622,0.38c-0.206,0.237-0.256,0.572-0.252,0.885
			c0.019,1.778,1.13,3.406,0.13,5.131c-0.104,0.18-0.23,0.352-0.403,0.467c-1.051,0.705-1.866-1.239-2.191-1.95
			c-0.485-1.062-0.758-2.22-0.813-3.385c-0.11-2.336,0.494-5.379,2.433-6.851c1.878-1.426,4.206-2.32,6.584-2.214
			c0.798,0.035,1.629,0.188,2.383,0.448c0.45,0.155,0.756,0.352,1.099,0.668c0.204,0.189,0.41,0.323,0.562,0.567
			c0.032,0.052,0.257,0.628,0.239,0.627C68.897,257.686,68.666,257.684,68.437,257.7z"/>
		<path style="fill:#FFFFFF;" d="M64.218,270.172c1.014-0.035,1.993,0.031,3.007-0.145c1.02-0.177,2.016-0.486,2.955-0.922
			c-0.002,0.001-0.148,1.071-0.187,1.183c-0.148,0.425-0.369,0.831-0.653,1.181c-0.923,1.132-2.902,1.372-4.093,0.534
			c-0.317-0.223-0.579-0.522-0.763-0.862C64.448,271.075,64.103,270.176,64.218,270.172z"/>
		<g>
			<g>
				<path style="fill:#1F143F;" d="M68.145,262.721c0.781-0.318,1.749-0.413,2.336,0.301c0.409,0.497,1.113-0.214,0.707-0.707
					c-0.799-0.972-2.218-1.002-3.309-0.558C67.291,261.996,67.548,262.964,68.145,262.721L68.145,262.721z"/>
			</g>
		</g>
		<path style="fill:#FAB594;" d="M59.082,268.667c0.575,1.12,0.481,2.314-0.209,2.669c-0.69,0.354-1.716-0.266-2.291-1.385
			c-0.575-1.12-0.481-2.314,0.209-2.669C57.481,266.927,58.507,267.547,59.082,268.667z"/>
		<path style="fill:#1F143F;" d="M63.92,265.847c0.118,0.717-0.095,1.348-0.475,1.411c-0.38,0.062-0.783-0.468-0.901-1.185
			c-0.118-0.717,0.095-1.348,0.475-1.41C63.4,264.6,63.803,265.131,63.92,265.847z"/>
		<path style="fill:#1F143F;" d="M69.996,264.944c0.021,0.726-0.273,1.324-0.658,1.335c-0.385,0.011-0.714-0.568-0.736-1.294
			c-0.022-0.726,0.273-1.324,0.657-1.335C69.645,263.638,69.975,264.218,69.996,264.944z"/>
		<g>
			<g>
				<path style="fill:#1F143F;" d="M63.778,262.475c-1.365-0.212-2.673,0.564-3.24,1.802c-0.266,0.581,0.595,1.09,0.863,0.505
					c0.363-0.792,1.171-1.488,2.111-1.342C64.142,263.537,64.413,262.573,63.778,262.475L63.778,262.475z"/>
			</g>
		</g>
	</g>
	<g>
		<path style="fill:#0091A2;" d="M311.852,352.243c0,0,131.564,0,141.223,0c9.328-10.229,10.337-23.321,0-31.025
			c-9.927,0-141.223,0-141.223,0v3.713l4.474,0v23.159h-4.474V352.243z"/>
		<path style="fill:#FFFFFF;" d="M316.326,348.091c0,0,125.029,0,134.104,0c6.459-5.131,6.648-18.459,0-23.159
			c-9.327,0-134.104,0-134.104,0V348.091z"/>
		<path style="opacity:0.2;fill:#231F20;" d="M447.027,329.248c-8.409,0-110.651,0-130.701,0v-4.316c0,0,124.777,0,134.104,0
			c6.648,4.699,6.459,18.028,0,23.159c-0.029,0-0.064,0-0.096,0C453.246,341.908,452.236,332.93,447.027,329.248z"/>
		<g>
			<path style="fill:#DFDBDA;" d="M445.136,333.822c-8.444,0.386-16.889,0.646-25.333,0.777c-8.444,0.16-16.889,0.202-25.333,0.222
				c-8.444-0.017-16.889-0.06-25.333-0.219c-8.444-0.131-16.889-0.392-25.333-0.78c8.444-0.389,16.889-0.65,25.333-0.78
				c8.444-0.159,16.889-0.202,25.333-0.219c8.444,0.02,16.889,0.063,25.333,0.222C428.247,333.176,436.692,333.436,445.136,333.822z
				"/>
		</g>
		<g>
			<path style="fill:#DFDBDA;" d="M430.39,340.828c-8.445,0.386-16.889,0.646-25.334,0.777c-8.444,0.16-16.889,0.202-25.333,0.222
				c-8.444-0.018-16.889-0.06-25.333-0.219c-8.444-0.131-16.889-0.392-25.333-0.78c8.444-0.389,16.889-0.65,25.333-0.78
				c8.445-0.159,16.889-0.202,25.333-0.219c8.445,0.02,16.889,0.063,25.333,0.222C413.501,340.182,421.945,340.441,430.39,340.828z"
				/>
		</g>
		<path style="fill:#00A1DD;" d="M451.38,290.296c0,0-131.564,0-141.223,0c-9.328-10.229-10.337-23.321,0-31.025
			c9.927,0,141.223,0,141.223,0v3.713l-4.474,0v23.159h4.474V290.296z"/>
		<path style="fill:#FFFFFF;" d="M446.905,286.143c0,0-125.029,0-134.103,0c-6.46-5.131-6.648-18.459,0-23.159
			c9.327,0,134.103,0,134.103,0V286.143z"/>
		<path style="opacity:0.2;fill:#231F20;" d="M316.205,267.301c8.408,0,110.651,0,130.701,0v-4.316c0,0-124.777,0-134.103,0
			c-6.648,4.699-6.46,18.028,0,23.159c0.029,0,0.064,0,0.096,0C309.985,279.96,310.996,270.983,316.205,267.301z"/>
		<g>
			<path style="fill:#DFDBDA;" d="M318.095,271.875c8.444-0.386,16.889-0.646,25.333-0.777c8.444-0.16,16.889-0.202,25.333-0.222
				c8.444,0.017,16.889,0.06,25.333,0.219c8.445,0.131,16.889,0.392,25.333,0.78c-8.444,0.389-16.889,0.65-25.333,0.78
				c-8.444,0.159-16.889,0.202-25.333,0.219c-8.444-0.02-16.889-0.063-25.333-0.222C334.984,272.52,326.54,272.261,318.095,271.875z
				"/>
		</g>
		<g>
			<path style="fill:#DFDBDA;" d="M332.842,278.88c8.444-0.386,16.889-0.646,25.333-0.777c8.444-0.16,16.889-0.202,25.333-0.222
				c8.444,0.017,16.889,0.06,25.333,0.219c8.444,0.131,16.889,0.392,25.333,0.78c-8.444,0.389-16.889,0.65-25.333,0.78
				c-8.445,0.159-16.889,0.202-25.333,0.219c-8.445-0.02-16.889-0.063-25.333-0.222C349.731,279.526,341.286,279.267,332.842,278.88
				z"/>
		</g>
		<path style="fill:#EEAF35;" d="M317.396,383.268c0,0,131.564,0,141.223,0c9.328-10.229,10.337-23.321,0-31.025
			c-9.927,0-141.223,0-141.223,0v3.713l4.474,0v23.159h-4.474V383.268z"/>
		<path style="fill:#FFDB49;" d="M300.509,383.268c0,0,131.564,0,141.223,0c9.328-10.229,10.337-23.321,0-31.025
			c-9.927,0-141.223,0-141.223,0v3.713l4.474,0v23.159h-4.474V383.268z"/>
		<path style="fill:#FFFFFF;" d="M304.983,379.116c0,0,125.029,0,134.104,0c6.459-5.131,6.648-18.459,0-23.159
			c-9.327,0-134.104,0-134.104,0V379.116z"/>
		<path style="opacity:0.2;fill:#231F20;" d="M435.683,360.273c-8.409,0-110.651,0-130.701,0v-4.316c0,0,124.777,0,134.104,0
			c6.648,4.699,6.459,18.028,0,23.159c-0.029,0-0.064,0-0.096,0C441.903,372.932,440.892,363.955,435.683,360.273z"/>
		<g>
			<path style="fill:#DFDBDA;" d="M433.793,364.847c-8.444,0.386-16.889,0.646-25.333,0.777c-8.445,0.16-16.889,0.202-25.334,0.222
				c-8.444-0.018-16.889-0.06-25.333-0.219c-8.444-0.131-16.889-0.392-25.333-0.78c8.444-0.389,16.889-0.65,25.333-0.78
				c8.445-0.159,16.889-0.202,25.333-0.219c8.445,0.02,16.889,0.063,25.334,0.222C416.904,364.201,425.348,364.461,433.793,364.847z
				"/>
		</g>
		<g>
			<path style="fill:#DFDBDA;" d="M419.047,371.853c-8.444,0.386-16.889,0.646-25.333,0.777c-8.445,0.16-16.889,0.202-25.333,0.222
				c-8.444-0.017-16.889-0.06-25.333-0.219c-8.444-0.131-16.889-0.392-25.333-0.78c8.444-0.389,16.889-0.65,25.333-0.78
				c8.444-0.159,16.889-0.202,25.333-0.219c8.444,0.02,16.889,0.063,25.333,0.222C402.158,371.207,410.602,371.466,419.047,371.853z
				"/>
		</g>
		<g>
			<path style="fill:#3CB35E;" d="M317.268,259.573c0,0,131.564,0,141.223,0c9.328-10.229,10.337-23.321,0-31.025
				c-9.927,0-141.223,0-141.223,0v3.713l4.474,0v23.159h-4.474V259.573z"/>
			<path style="fill:#009364;" d="M300.382,259.573c0,0,131.564,0,141.223,0c9.328-10.229,10.337-23.321,0-31.025
				c-9.927,0-141.223,0-141.223,0v3.713l4.474,0v23.159h-4.474V259.573z"/>
			<path style="fill:#FFFFFF;" d="M304.855,255.42c0,0,125.029,0,134.104,0c6.459-5.131,6.648-18.459,0-23.159
				c-9.327,0-134.104,0-134.104,0V255.42z"/>
			<path style="opacity:0.2;fill:#231F20;" d="M435.556,236.577c-8.408,0-110.651,0-130.701,0v-4.316c0,0,124.777,0,134.104,0
				c6.648,4.699,6.459,18.028,0,23.159c-0.029,0-0.064,0-0.096,0C441.776,249.237,440.765,240.26,435.556,236.577z"/>
			<g>
				<path style="fill:#DFDBDA;" d="M433.666,241.152c-8.444,0.386-16.889,0.646-25.333,0.777c-8.444,0.16-16.889,0.202-25.333,0.222
					c-8.444-0.017-16.889-0.06-25.333-0.219c-8.444-0.131-16.889-0.392-25.333-0.78c8.445-0.389,16.889-0.65,25.333-0.78
					c8.445-0.159,16.889-0.202,25.333-0.219c8.445,0.02,16.889,0.063,25.333,0.222C416.777,240.506,425.221,240.765,433.666,241.152
					z"/>
			</g>
			<g>
				<path style="fill:#DFDBDA;" d="M418.919,248.157c-8.444,0.387-16.889,0.646-25.333,0.777c-8.445,0.16-16.889,0.202-25.333,0.222
					c-8.445-0.017-16.889-0.06-25.333-0.219c-8.445-0.131-16.889-0.392-25.334-0.78c8.445-0.389,16.889-0.65,25.334-0.78
					c8.444-0.159,16.889-0.202,25.333-0.219c8.444,0.02,16.889,0.063,25.333,0.222C402.03,247.511,410.475,247.771,418.919,248.157z
					"/>
			</g>
		</g>
		<path style="fill:#FFDB49;" d="M304.966,321.4H455.74c1.105,0,2-0.895,2-2v-27.416c0-1.104-0.895-2-2-2H304.966
			c-1.104,0-2,0.896-2,2V319.4C302.966,320.504,303.862,321.4,304.966,321.4z"/>
		<path style="opacity:0.1;fill:#231F20;" d="M455.219,297.135c0-0.835-0.677-1.513-1.512-1.513H302.966v-4.126
			c0-0.835,0.677-1.513,1.513-1.513h151.749c0.835,0,1.512,0.677,1.512,1.513v28.391c0,0.835-0.677,1.512-1.512,1.512h-1.008
			V297.135z"/>
		
			<rect x="419.047" y="289.984" transform="matrix(-1 -1.224647e-16 1.224647e-16 -1 856.6207 611.202)" style="fill:#EEAF35;" width="18.528" height="31.234"/>
		
			<rect x="400.771" y="294.246" transform="matrix(-1 -1.224647e-16 1.224647e-16 -1 813.5329 611.2022)" style="fill:#EEAF35;" width="11.991" height="22.709"/>
		<path style="fill:#0091A2;" d="M304.966,228.548H455.74c1.105,0,2-0.895,2-2v-27.416c0-1.105-0.895-2-2-2H304.966
			c-1.104,0-2,0.895-2,2v27.416C302.966,227.652,303.862,228.548,304.966,228.548z"/>
		<path style="opacity:0.1;fill:#231F20;" d="M455.219,204.283c0-0.835-0.677-1.512-1.512-1.512H302.966v-4.126
			c0-0.835,0.677-1.512,1.513-1.512h151.749c0.835,0,1.512,0.677,1.512,1.512v28.391c0,0.835-0.677,1.512-1.512,1.512h-1.008
			V204.283z"/>
		
			<rect x="419.047" y="197.132" transform="matrix(-1 -1.224647e-16 1.224647e-16 -1 856.6207 425.4983)" style="fill:#386E8A;" width="18.528" height="31.235"/>
		
			<rect x="400.771" y="201.394" transform="matrix(-1 -1.224647e-16 1.224647e-16 -1 813.5329 425.4982)" style="fill:#386E8A;" width="11.991" height="22.71"/>
	</g>
	<g>
		<g>
			<path style="fill:#FFFFFF;" d="M344.095,362.347c-21.848,6.434-85.583-18.434-111.416,0.794
				c-9.98,2.907-12.809-1.869-12.927-10.289c29.465-44.753,72.225-2.316,112.289-5.206
				C336.26,352.823,338.718,356.817,344.095,362.347z"/>
			<path style="fill:#FFFFFF;" d="M330.207,335.277c-69.065,9.558-99.174,9.558-110.337,35.98c0-5.971,0-10.139-0.088-18.362
				c3.878-36.325,66.246-38.476,86.523-57.832C311.536,303.106,326.088,329.462,330.207,335.277z"/>
			<rect x="232.876" y="368.781" style="fill:#2E3A36;" width="111.219" height="13.383"/>
			<path style="fill:#D5BFB8;" d="M356.282,385.799c-22.018,6.35-97.598-20.072-122.484-6.145
				c-10.753,3.072-19.276,5.647-13.928-10.874c31.747-47.296,82.748,0,125.915-3.054
				C348.588,372.199,351.929,379.655,356.282,385.799z"/>
			<g>
				<path style="fill:#938585;" d="M229.326,367.477c3.217-3.543,7.427-6.127,11.885-7.923c4.48-1.789,9.247-2.816,14.046-3.272
					c9.65-0.958,19.328,0.658,28.582,3.042c9.282,2.43,18.251,5.69,27.358,8.359c9.099,2.642,18.418,4.759,27.977,4.863
					c-4.762,0.357-9.563,0.071-14.316-0.515c-4.749-0.643-9.445-1.638-14.075-2.843c-9.273-2.387-18.274-5.566-27.448-7.93
					c-4.578-1.21-9.205-2.201-13.876-2.836c-4.671-0.656-9.38-0.888-14.079-0.59c-2.346,0.155-4.689,0.424-7.001,0.867
					c-2.313,0.428-4.608,0.989-6.831,1.769C237.068,361.928,232.857,364.262,229.326,367.477z"/>
			</g>
			<g>
				<path style="fill:#938585;" d="M232.33,373.643c1.882-1.385,3.977-2.478,6.143-3.372c2.168-0.893,4.403-1.646,6.681-2.22
					c4.559-1.146,9.234-1.8,13.925-2.072c9.403-0.582,18.81,0.449,28.027,2.016c9.226,1.606,18.295,3.785,27.414,5.58
					c9.12,1.771,18.323,3.194,27.658,3.402c-9.326,0.573-18.72-0.34-27.934-1.865c-9.234-1.494-18.327-3.59-27.479-5.146
					c-9.137-1.593-18.373-2.687-27.618-2.432c-4.619,0.135-9.24,0.568-13.778,1.469C240.836,369.881,236.357,371.271,232.33,373.643
					z"/>
			</g>
		</g>
		<g>
			<path style="fill:#FFFFFF;" d="M95.669,362.347c21.848,6.434,85.583-18.434,111.416,0.794c9.98,2.907,12.809-1.869,12.927-10.289
				c-29.465-44.753-72.225-2.316-112.289-5.206C103.504,352.823,101.046,356.817,95.669,362.347z"/>
			<path style="fill:#FFFFFF;" d="M109.557,335.277c69.065,9.558,99.174,9.558,110.337,35.98c0-5.971,0-10.139,0.088-18.362
				c-3.878-36.325-66.246-38.476-86.523-57.832C128.228,303.106,113.676,329.462,109.557,335.277z"/>
			
				<rect x="95.669" y="368.781" transform="matrix(-1 -1.224647e-16 1.224647e-16 -1 302.5566 750.9448)" style="fill:#2E3A36;" width="111.219" height="13.383"/>
			<path style="fill:#D5BFB8;" d="M83.482,385.799c22.019,6.35,97.598-20.072,122.484-6.145
				c10.753,3.072,19.276,5.647,13.928-10.874c-31.747-47.296-82.748,0-125.915-3.054C91.176,372.199,87.835,379.655,83.482,385.799z
				"/>
			<g>
				<path style="fill:#938585;" d="M210.437,367.477c-3.531-3.215-7.741-5.549-12.224-7.009c-2.223-0.78-4.519-1.341-6.831-1.769
					c-2.311-0.443-4.654-0.712-7.001-0.867c-4.699-0.298-9.408-0.066-14.079,0.59c-4.671,0.636-9.298,1.626-13.876,2.836
					c-9.174,2.363-18.175,5.543-27.448,7.93c-4.63,1.205-9.326,2.2-14.075,2.843c-4.753,0.587-9.555,0.872-14.316,0.515
					c9.559-0.104,18.878-2.221,27.977-4.863c9.107-2.669,18.077-5.93,27.358-8.359c9.254-2.383,18.932-4,28.582-3.042
					c4.799,0.456,9.566,1.484,14.046,3.272C203.01,361.35,207.221,363.935,210.437,367.477z"/>
			</g>
			<g>
				<path style="fill:#938585;" d="M207.433,373.643c-4.027-2.373-8.506-3.762-13.04-4.642c-4.538-0.902-9.158-1.335-13.778-1.469
					c-9.245-0.255-18.482,0.839-27.618,2.432c-9.152,1.557-18.244,3.653-27.479,5.146c-9.214,1.526-18.608,2.438-27.934,1.865
					c9.336-0.208,18.539-1.63,27.658-3.402c9.119-1.795,18.189-3.974,27.414-5.58c9.217-1.567,18.623-2.597,28.027-2.016
					c4.691,0.272,9.367,0.926,13.925,2.072c2.278,0.574,4.513,1.327,6.681,2.22C203.457,371.166,205.552,372.258,207.433,373.643z"
					/>
			</g>
		</g>
		<path style="fill:#2E3A36;" d="M233.94,379.655l-8.714-8.714c-2.88-2.88-7.548-2.88-10.428,0l-8.714,8.714l13.928,7.569
			L233.94,379.655z"/>
		<path style="fill:none;stroke:#B8A392;stroke-width:3;stroke-miterlimit:10;" d="M233.798,379.655l-8.714-8.714
			c-2.88-2.88-7.548-2.88-10.428,0l-8.714,8.714"/>
		<g>
			<path style="fill:#0091A2;" d="M356.282,383.299c-35.764-1.794-71.528-3.588-107.292-5.382
				c-5.064-0.254-10.128-0.508-15.191-0.762c-1.161-0.058-2.044,0.83-2.411,1.835c-1.092,2.991-7.882,4.219-11.517,4.309
				c-3.212,0.08-3.224,5.08,0,5c5.88-0.146,14.01-1.6,16.339-7.98c-0.804,0.612-1.607,1.224-2.411,1.835
				c35.764,1.794,71.528,3.588,107.292,5.383c5.064,0.254,10.128,0.508,15.191,0.762
				C359.498,388.461,359.489,383.46,356.282,383.299L356.282,383.299z"/>
		</g>
		<g>
			<path style="fill:#0091A2;" d="M83.458,388.299c35.764-1.794,71.528-3.588,107.292-5.382c5.064-0.254,10.128-0.508,15.191-0.762
				c-0.804-0.612-1.607-1.224-2.411-1.835c2.328,6.378,10.468,7.834,16.339,7.98c3.219,0.08,3.217-4.92,0-5
				c-3.636-0.09-10.426-1.318-11.517-4.309c-0.365-1-1.26-1.893-2.411-1.835c-35.764,1.794-71.528,3.588-107.292,5.383
				c-5.064,0.254-10.128,0.508-15.191,0.762C80.256,383.46,80.237,388.461,83.458,388.299L83.458,388.299z"/>
		</g>
	</g>
	<g>
		<path style="fill:#1F143F;" d="M312.433,226.341c-0.254-0.07-0.513-0.146-0.775-0.122c-0.262,0.024-0.531,0.174-0.613,0.424
			c-0.046,0.141-0.028,0.296,0.017,0.438c0.235,0.746,1.075,1.087,1.817,1.333c2.742,0.909,5.484,1.818,8.226,2.727
			c0.123,0.041,0.25,0.082,0.38,0.072c0.144-0.011,0.275-0.084,0.393-0.167c0.848-0.597,1.158-1.704,1.266-2.735
			c0.108-1.031,0.082-2.104,0.496-3.055c0.146-0.336,0.346-0.722,0.169-1.043c-0.081-0.146-0.225-0.243-0.367-0.331
			c-0.796-0.497-1.652-0.898-2.544-1.191c0.099,0.036-0.946,2.804-1.133,3.042C318.104,227.857,314.618,226.944,312.433,226.341z"/>
		<path style="fill:#D99D81;" d="M349.998,148.793c0.017,0.076,0.037,0.155,0.089,0.212c0.064,0.07,0.164,0.09,0.257,0.105
			c2.008,0.331,4.057-0.026,6.043-0.451c-0.538-2.324-1.138-4.633-1.799-6.925c-0.02-0.07-0.044-0.145-0.103-0.188
			c-0.071-0.051-0.167-0.038-0.252-0.023c-1.024,0.184-2.046,0.379-3.065,0.586c-0.861,0.175-1.726,0.274-2.587,0.469
			c0.332,1.058,0.527,2.093,0.752,3.18C349.545,146.772,349.766,147.784,349.998,148.793z"/>
		<path style="fill:#1F143F;" d="M323.427,198.81c0.888-3.006,1.93-5.967,3.264-8.874c0.251-0.547,0.53-1.112,1.014-1.47
			c0.389-0.287,0.872-0.411,1.341-0.528c3.77-0.941,7.54-1.883,11.31-2.824c3.721-0.929,7.465-1.862,11.291-2.141
			c2.385-0.174,9.37-0.919,10.254,1.983c0.3,0.984-0.036,2.055-0.53,2.958c-1.796,3.28-5.448,5.049-8.974,6.294
			c-5.918,2.089-12.15,3.284-18.421,3.535c-3.327,9.26-5.833,18.801-8.701,28.236l-7.406-2.005c0,0,2.141-11.369,2.417-12.558
			C321.278,207.151,322.207,202.939,323.427,198.81z"/>
		<path style="fill:#1F143F;" d="M334.777,232.034c-0.223,0.14-0.454,0.28-0.613,0.489c-0.159,0.21-0.231,0.509-0.101,0.738
			c0.073,0.129,0.2,0.22,0.334,0.283c0.709,0.33,1.528-0.059,2.21-0.44c2.522-1.408,5.045-2.816,7.567-4.224
			c0.113-0.063,0.23-0.129,0.31-0.231c0.089-0.113,0.124-0.259,0.143-0.402c0.132-1.028-0.475-2.005-1.162-2.781
			c-0.687-0.776-1.496-1.482-1.918-2.43c-0.149-0.335-0.299-0.743-0.655-0.829c-0.162-0.039-0.331,0.002-0.492,0.047
			c-0.904,0.252-1.778,0.612-2.597,1.072c0.093-0.049,1.428,2.592,1.478,2.89C339.725,228.876,336.697,230.83,334.777,232.034z"/>
		<path style="fill:#FAB594;" d="M344.839,144.618c1.004,0.923,2.139,1.516,3.308,1.355c1.516-0.209,2.907-0.873,4.134-1.773
			c2.414-1.772,4.537-4.603,4.952-7.632c0.611-4.458-3.242-8.101-7.399-8.765c-0.488-0.078-0.983-0.118-1.477-0.119
			c-2.589-0.004-5.204,0.727-6.754,2.897c-1.749,2.449-1.206,6.211-0.168,8.869C341.991,140.878,343.252,143.159,344.839,144.618z"
			/>
		<path style="fill:#1F143F;" d="M336.788,199.034c0.919,2.101,1.518,4.325,2.113,6.54c1.597,5.948,4.778,17.848,4.778,17.848
			l-6.64,1.982c-1.656-4.598-3.598-9.087-5.549-13.566c-0.683-1.567-1.348-3.143-2.019-4.717c-1.199-2.814-2.415-5.622-3.776-8.359
			c-1.717-3.453-2.736-6.378-2.475-10.317c0.164-2.478,1.075-4.317,3.593-4.809c2.693-0.527,5.43-0.865,8.168-1.047
			c1.807-0.12,3.617-0.167,5.427-0.214c4.283-0.112,8.565-0.223,12.847-0.335c2.191-0.057,4.382-0.114,6.573-0.171
			c1.414-0.037,3.293-0.538,4.657-0.269c0.619,2.318,1.043,5.162,0.289,7.496c-2.043,6.333-7.799,9.363-14.225,9.139
			c-3.801-0.133-7.497-1.301-11-2.784c-1.332-0.564-2.679-1.184-4.122-1.285C335.148,195.747,336.175,197.632,336.788,199.034z"/>
		<path style="fill:#29BAA3;" d="M345.21,182.249c3.371-0.108,19.617,0.123,19.605,0.015c-0.547-5.133-0.146-10.463-0.225-15.643
			c-0.065-4.294-0.512-8.64-2.01-12.692c-1.316-3.561-3.535-7.379-7.846-7.309c-0.774,0.012-1.543,0.16-2.275,0.41
			c-3.639,1.238-5.48,4.91-6.497,8.355c-1.321,4.474-1.347,9.197-1.24,13.821c0.057,2.448-0.138,4.895-0.057,7.342
			C344.728,178.45,345.012,180.357,345.21,182.249z"/>
		<path style="fill:#1F143F;" d="M351.901,139.634c0.028,1.391,1.524,1.816,2.313,2.852c0.934,1.228,1.448,2.79,1.343,4.336
			c-0.035,0.512-0.13,1.037,0.016,1.529c0.236,0.796,1.018,1.273,1.667,1.792c2.404,1.92,3.408,5.043,4.503,7.918
			c0.407,1.068,0.856,2.149,1.624,2.995c1.163,1.282,3.006,1.878,4.716,1.609c2.294-0.36,3.66-2.061,4.902-3.843
			c1.116-1.601,1.341-3.784,0.576-5.58c-1.044-2.45-3.788-4.327-3.556-6.98c0.099-1.128,0.753-2.141,0.923-3.26
			c0.337-2.212-1.247-4.243-2.922-5.726c-1.675-1.483-3.626-2.851-4.446-4.933c-0.614-1.558-0.502-3.318-1.038-4.905
			c-0.704-2.086-2.496-3.685-4.527-4.534c-2.031-0.849-4.285-1.022-6.485-0.924c-2.509,0.112-5.034,0.573-7.296,1.665
			c-2.262,1.092-4.251,2.853-5.331,5.121c-0.167,0.35-0.314,0.722-0.307,1.11c0.02,1.139,1.282,1.82,2.397,2.055
			c1.233,0.26,2.245,0.384,3.137,1.302c0.646,0.664,0.975,1.644,1.807,2.141c0.513,0.306,1.088,0.557,1.684,0.638
			c0.589,0.081,0.979-0.16,1.528-0.205c-0.185-0.554,0.151-1.172,0.676-1.393c0.53-0.224,1.163-0.082,1.636,0.246
			C353.275,135.927,351.866,137.898,351.901,139.634z"/>
		<path style="fill:#FAB594;" d="M356.681,165.385c0.318,0.94,0.636,1.885,1.016,2.827c0.815,2.018,1.63,4.037,2.445,6.055
			c0.302,0.748,0.687,1.578,1.451,1.839c0.453,0.155,0.961,0.068,1.392-0.139c0.882-0.425,1.47-1.322,1.724-2.268
			c0.588-2.195-0.252-4.447-0.901-6.527c-1.184-3.794-2.671-7.439-4.352-11.022c-0.441-0.94-0.844-1.905-1.414-2.773
			c-0.57-0.868-1.332-1.647-2.294-2.038c-0.962-0.391-2.145-0.333-2.953,0.32c-0.943,0.762-0.789,1.938-0.435,2.961
			c0.831,2.4,1.812,4.747,2.895,7.044C355.832,162.886,356.257,164.132,356.681,165.385z"/>
		<path style="fill:#FAB594;" d="M356.102,171.648c-4.872,0.458-9.668,1.692-14.42,2.92c-0.384,0.099-0.781,0.205-1.087,0.457
			c-0.767,0.633-0.679,2.226,0.317,2.607c0.25,0.095,0.522,0.108,0.79,0.118c2.325,0.088,4.766,0.254,7.07,0.031
			c2.458-0.238,4.914-0.499,7.363-0.818c0.988-0.129,1.974-0.267,2.959-0.417c1.249-0.191,2.606-0.192,3.725-0.853
			c0.114-0.067,0.228-0.143,0.302-0.253c0.066-0.098,0.095-0.217,0.12-0.332c0.115-0.535,0.176-1.101,0.004-1.621
			c-0.559-1.695-2.33-2.045-3.893-2.021C358.266,171.483,357.182,171.547,356.102,171.648z"/>
		
			<rect x="321.355" y="180.95" transform="matrix(-0.9954 0.096 -0.096 -0.9954 678.9862 331.6393)" style="fill:#0091A2;" width="20.325" height="2.398"/>
		
			<rect x="308.419" y="173.272" transform="matrix(0.3865 0.9223 -0.9223 0.3865 356.3551 -186.787)" style="fill:#0091A2;" width="20.325" height="2.398"/>
		<path style="fill:#FAB594;" d="M333.616,175.043c0.342-0.143,0.714-0.234,1.051-0.304c0.853-0.178,1.705-0.356,2.558-0.534
			c0.854-0.178,1.755-0.355,2.586-0.086c0.408,0.132,0.775,0.366,1.137,0.597c0.611,0.39,1.223,0.781,1.834,1.171
			c0.09,0.596-0.222,1.197-0.665,1.606c-0.443,0.409-1.004,0.663-1.555,0.909c-0.391,0.175-0.785,0.351-1.199,0.463
			c-1.943,0.522-3.953-0.441-5.675-1.48c-0.138,0.668-0.275,1.336-0.413,2.004c-0.091,0.442-0.563,1.45-1.154,0.821
			c-0.22-0.234-0.191-0.6-0.148-0.918c0.094-0.693,0.187-1.387,0.281-2.08c0.059-0.435,0.12-0.879,0.312-1.274
			C332.777,175.503,333.172,175.229,333.616,175.043z"/>
		<path style="fill:#29BAA3;" d="M351.412,157.465c0.596,1.895,1.021,3.991,2.032,5.716c0.775-0.288,8.884-3.315,9.074-2.913
			c-0.829-1.755-1.659-3.51-2.488-5.265c-0.653-1.381-1.331-2.797-2.447-3.84c-1.116-1.043-2.788-1.639-4.205-1.07
			c-0.936,0.376-1.641,1.217-1.99,2.164C350.787,153.883,350.905,155.852,351.412,157.465z"/>
		<path style="fill:#FFFFFF;" d="M346.548,141.671c-0.927,0.414-1.777,0.902-2.766,1.188c-0.131,0.038-0.268,0.055-0.4,0.088
			c0.442,0.606,0.929,1.185,1.457,1.67c0.115,0.106,0.233,0.206,0.352,0.303c0.52-0.27,0.965-0.665,1.235-1.154
			c0.187-0.339,0.292-0.723,0.308-1.11C346.737,142.584,346.653,141.624,346.548,141.671z"/>
		<path style="fill:#1F143F;" d="M342.488,137.899c0.191,0.701,0.646,1.187,1.017,1.086c0.371-0.101,0.518-0.751,0.327-1.452
			c-0.191-0.701-0.646-1.187-1.018-1.086C342.444,136.548,342.297,137.198,342.488,137.899z"/>
		<g>
			<g>
				<path style="fill:#1F143F;" d="M341.79,135.587c0.78-0.513,1.798-0.346,2.481,0.241c0.486,0.417,1.196-0.287,0.707-0.707
					c-1.012-0.869-2.522-1.167-3.693-0.397C340.75,135.076,341.25,135.942,341.79,135.587L341.79,135.587z"/>
			</g>
		</g>
	</g>
	<g>
		<path style="fill:#0091A2;" d="M295.263,294.339c-13.409-15.103-36.522-16.478-51.626-3.069
			c-15.103,13.409-16.477,36.522-3.069,51.625c13.409,15.103,36.522,16.478,51.626,3.069
			C307.298,332.556,308.672,309.442,295.263,294.339z M288.429,341.746c-12.768,11.335-32.308,10.174-43.643-2.594
			c-11.335-12.768-10.174-32.308,2.594-43.643c12.768-11.335,32.308-10.174,43.643,2.594
			C302.358,310.871,301.197,330.411,288.429,341.746z"/>
		
			<rect x="301.728" y="337.719" transform="matrix(-0.7478 0.6639 -0.6639 -0.7478 771.46 426.9522)" style="fill:#0091A2;" width="5.828" height="44.552"/>
		
			<ellipse transform="matrix(0.7253 -0.6885 0.6885 0.7253 -145.7659 271.9822)" style="opacity:0.2;fill:#EAEFF2;" cx="267.895" cy="318.627" rx="30.915" ry="30.915"/>
		<path style="opacity:0.2;fill:#EAEFF2;" d="M291.274,297.872c2.556,2.88,4.443,6.113,5.738,9.509
			c-1.689,3.219-3.945,6.206-6.824,8.763c-12.768,11.335-32.308,10.174-43.643-2.595c-2.556-2.879-4.443-6.113-5.738-9.509
			c1.689-3.219,3.945-6.206,6.824-8.763C260.399,283.942,279.939,285.104,291.274,297.872z"/>
		<path style="fill:#1F143F;" d="M331.508,395.719l5.423-4.814c0.826-0.733,0.901-1.997,0.168-2.823l-26.922-30.325
			c-0.733-0.826-1.997-0.901-2.823-0.168l-5.423,4.814c-0.826,0.733-0.901,1.997-0.168,2.823l26.922,30.325
			C329.418,396.377,330.682,396.452,331.508,395.719z"/>
	</g>
</g>
<g id="DESIGNED_BY_FREEPIK">
	<g>
		<g>
			<g id="XMLID_197_">
				<g id="XMLID_216_">
					<path id="XMLID_224_" style="fill:#121212;" d="M261.077,475.566c-0.432,0.443-0.803,0.931-1.108,1.453l-0.465-0.241
						c-0.067-0.298-0.349-0.503-0.659-0.466c-0.331,0.039-0.568,0.339-0.529,0.67c0.039,0.331,0.339,0.568,0.67,0.529
						c0.065-0.008,0.127-0.026,0.184-0.052l0.452,0.234c-0.251,0.554-0.433,1.139-0.539,1.744l0.746,0.132
						c0.23-1.306,0.85-2.507,1.792-3.473L261.077,475.566z"/>
					<path id="XMLID_223_" style="fill:#121212;" d="M266.565,473.264c-0.171,0-0.341,0.006-0.51,0.017l-0.074-0.626
						c0.188-0.149,0.296-0.389,0.266-0.645c-0.046-0.393-0.402-0.674-0.795-0.628s-0.674,0.402-0.628,0.795
						c0.03,0.254,0.189,0.461,0.405,0.564l0.073,0.624c-0.714,0.116-1.403,0.332-2.06,0.646l0.327,0.684
						c0.934-0.447,1.942-0.673,2.995-0.673c0.496,0,0.993,0.053,1.475,0.158l0.161-0.741
						C267.665,473.323,267.115,473.264,266.565,473.264z"/>
					<path id="XMLID_222_" style="fill:#121212;" d="M273.167,475.811c0.331-0.041,0.566-0.342,0.526-0.672
						c-0.041-0.331-0.342-0.566-0.672-0.526c-0.309,0.038-0.535,0.304-0.53,0.609l-0.416,0.363c-0.418-0.43-0.89-0.813-1.408-1.139
						l-0.404,0.641c1.134,0.715,2.021,1.726,2.563,2.925l0.69-0.313c-0.251-0.554-0.568-1.072-0.942-1.545l0.402-0.351
						C273.038,475.816,273.102,475.819,273.167,475.811z"/>
					<path id="XMLID_221_" style="fill:#121212;" d="M266.017,483.472c-0.386,0.023-0.775,0.035-1.157,0.035
						c-0.88,0-1.733-0.061-2.478-0.179c-0.39-0.062-0.846-0.155-1.27-0.292c1.046,1.861,3.069,3.125,5.388,3.125
						c2.855,0,5.262-1.916,5.95-4.504c-0.682,0.449-1.505,0.825-2.459,1.123C268.811,483.147,267.436,483.387,266.017,483.472z"/>
					<path id="XMLID_217_" style="fill:#121212;" d="M266.565,474.78c-3.352,0-6.08,2.666-6.08,5.944
						c0,0.426,0.046,0.849,0.137,1.261c0.673,0.483,2.706,0.89,5.348,0.731c2.879-0.173,5.297-0.957,6.672-2.159
						c-0.005-0.195-0.021-0.39-0.045-0.582C272.216,477.013,269.623,474.78,266.565,474.78z M264.405,481.295
						c-1.02,0-1.85-0.83-1.85-1.85c0-1.02,0.83-1.85,1.85-1.85c1.02,0,1.85,0.83,1.85,1.85
						C266.255,480.465,265.425,481.295,264.405,481.295z M269.142,480.386c-0.75,0-1.36-0.61-1.36-1.36
						c0-0.75,0.61-1.361,1.36-1.361c0.75,0,1.361,0.61,1.361,1.361C270.503,479.776,269.893,480.386,269.142,480.386z"/>
				</g>
				<path id="XMLID_214_" style="fill:#121212;" d="M282.568,476.647c-0.295-0.116-0.806-0.309-1.382-0.237
					c-0.551,0.069-0.844,0.341-0.844,1.007v0.866h2.228v1.717h-2.228v5.455h-1.932v-5.455h-1.34v-1.717h1.34v-0.888
					c0-1.68,0.896-2.783,2.568-2.783c0.642,0,1.157,0.122,1.59,0.308L282.568,476.647z"/>
				<path id="XMLID_212_" style="fill:#121212;" d="M287.271,479.979c-0.177-0.03-0.358-0.046-0.526-0.046
					c-0.896,0-1.51,0.548-1.51,1.613v3.908h-1.932v-7.172h1.873v0.785c0.451-0.673,1.14-0.977,2.021-0.977
					c0.414,0,0.848,0.127,1.094,0.337L287.271,479.979z"/>
				<path id="XMLID_209_" style="fill:#121212;" d="M294.938,481.857c0,0.222-0.015,0.489-0.037,0.651h-5.085
					c0.207,1.036,0.933,1.488,1.843,1.488c0.622,0,1.295-0.252,1.813-0.688l1.133,1.243c-0.814,0.748-1.85,1.088-3.057,1.088
					c-2.198,0-3.723-1.495-3.723-3.753c0-2.258,1.48-3.797,3.626-3.797C293.517,478.09,294.93,479.622,294.938,481.857z
					 M289.823,481.191h3.175c-0.177-0.918-0.733-1.436-1.562-1.436C290.526,479.755,289.994,480.303,289.823,481.191z"/>
				<path id="XMLID_206_" style="fill:#121212;" d="M302.591,481.857c0,0.222-0.015,0.489-0.037,0.651h-5.085
					c0.207,1.036,0.932,1.488,1.843,1.488c0.622,0,1.295-0.252,1.813-0.688l1.132,1.243c-0.814,0.748-1.85,1.088-3.057,1.088
					c-2.198,0-3.723-1.495-3.723-3.753c0-2.258,1.48-3.797,3.627-3.797C301.17,478.09,302.584,479.622,302.591,481.857z
					 M297.477,481.191h3.175c-0.178-0.918-0.733-1.436-1.562-1.436C298.18,479.755,297.647,480.303,297.477,481.191z"/>
				<path id="XMLID_203_" style="fill:#121212;" d="M310.937,481.865c0,2.154-1.495,3.775-3.471,3.775
					c-0.962,0-1.643-0.378-2.109-0.933v3.708h-1.924v-10.133h1.887v0.792c0.466-0.585,1.155-0.984,2.139-0.984
					C309.442,478.09,310.937,479.711,310.937,481.865z M305.26,481.865c0,1.132,0.747,1.976,1.843,1.976
					c1.14,0,1.85-0.881,1.85-1.976c0-1.095-0.711-1.976-1.85-1.976C306.007,479.888,305.26,480.732,305.26,481.865z"/>
				<path id="XMLID_200_" style="fill:#121212;" d="M314.04,475.936c0,0.696-0.54,1.229-1.236,1.229
					c-0.696,0-1.229-0.533-1.229-1.229c0-0.696,0.533-1.243,1.229-1.243C313.5,474.693,314.04,475.24,314.04,475.936z
					 M313.781,485.454h-1.932v-7.172h1.932V485.454z"/>
				<path id="XMLID_198_" style="fill:#121212;" d="M317.005,480.836l2.702-2.554h2.368l-3.479,3.375l3.501,3.797h-2.376
					l-2.716-2.901v2.901h-1.932v-10.658h1.932V480.836z"/>
			</g>
			<g>
				<path style="fill:#121212;" d="M185.385,485.389v-1.055c-0.527,0.718-1.391,1.23-2.387,1.23c-1.846,0-3.149-1.406-3.149-3.706
					c0-2.256,1.289-3.721,3.149-3.721c0.952,0,1.816,0.469,2.387,1.245v-3.765h1.099v9.77H185.385z M185.385,483.47v-3.208
					c-0.395-0.615-1.245-1.143-2.124-1.143c-1.421,0-2.27,1.172-2.27,2.739c0,1.567,0.85,2.724,2.27,2.724
					C184.14,484.584,184.99,484.086,185.385,483.47z"/>
				<path style="fill:#121212;" d="M187.904,481.845c0-2.051,1.465-3.706,3.486-3.706c2.139,0,3.398,1.67,3.398,3.794v0.279h-5.727
					c0.088,1.333,1.025,2.446,2.549,2.446c0.805,0,1.626-0.322,2.182-0.893l0.527,0.718c-0.703,0.703-1.655,1.084-2.812,1.084
					C189.413,485.565,187.904,484.056,187.904,481.845z M191.376,479.047c-1.509,0-2.256,1.274-2.314,2.358h4.643
					C193.69,480.35,192.987,479.047,191.376,479.047z"/>
				<path style="fill:#121212;" d="M195.58,484.452l0.571-0.791c0.469,0.542,1.362,1.011,2.329,1.011c1.084,0,1.67-0.513,1.67-1.216
					c0-1.714-4.38-0.659-4.38-3.281c0-1.098,0.952-2.036,2.636-2.036c1.201,0,2.051,0.454,2.622,1.025l-0.513,0.762
					c-0.424-0.513-1.201-0.894-2.109-0.894c-0.967,0-1.567,0.483-1.567,1.113c0,1.553,4.38,0.527,4.38,3.281
					c0,1.187-0.952,2.138-2.783,2.138C197.279,485.565,196.297,485.214,195.58,484.452z"/>
				<path style="fill:#121212;" d="M202.45,476.571c0-0.41,0.337-0.747,0.732-0.747c0.41,0,0.747,0.337,0.747,0.747
					c0,0.41-0.337,0.732-0.747,0.732C202.786,477.303,202.45,476.982,202.45,476.571z M202.64,485.389v-7.075h1.099v7.075H202.64z"
					/>
				<path style="fill:#121212;" d="M205.555,487.206l0.556-0.82c0.586,0.703,1.289,0.967,2.3,0.967c1.172,0,2.27-0.571,2.27-2.124
					v-1.011c-0.513,0.718-1.377,1.26-2.373,1.26c-1.845,0-3.149-1.377-3.149-3.662c0-2.27,1.289-3.676,3.149-3.676
					c0.952,0,1.802,0.469,2.373,1.245v-1.069h1.098v6.87c0,2.344-1.641,3.076-3.369,3.076
					C207.21,488.26,206.389,488.026,205.555,487.206z M210.681,483.353v-3.091c-0.381-0.615-1.23-1.143-2.109-1.143
					c-1.421,0-2.27,1.128-2.27,2.695c0,1.553,0.849,2.695,2.27,2.695C209.451,484.51,210.3,483.969,210.681,483.353z"/>
				<path style="fill:#121212;" d="M218.386,485.389v-4.629c0-1.245-0.63-1.641-1.582-1.641c-0.865,0-1.685,0.527-2.095,1.099v5.17
					h-1.099v-7.075h1.099v1.025c0.498-0.586,1.465-1.201,2.519-1.201c1.48,0,2.256,0.747,2.256,2.285v4.966H218.386z"/>
				<path style="fill:#121212;" d="M220.905,481.845c0-2.051,1.465-3.706,3.486-3.706c2.139,0,3.398,1.67,3.398,3.794v0.279h-5.727
					c0.088,1.333,1.025,2.446,2.549,2.446c0.806,0,1.626-0.322,2.183-0.893l0.527,0.718c-0.703,0.703-1.655,1.084-2.812,1.084
					C222.414,485.565,220.905,484.056,220.905,481.845z M224.377,479.047c-1.509,0-2.256,1.274-2.314,2.358h4.643
					C226.691,480.35,225.988,479.047,224.377,479.047z"/>
				<path style="fill:#121212;" d="M234.323,485.389v-1.055c-0.527,0.718-1.391,1.23-2.388,1.23c-1.845,0-3.149-1.406-3.149-3.706
					c0-2.256,1.289-3.721,3.149-3.721c0.952,0,1.817,0.469,2.388,1.245v-3.765h1.098v9.77H234.323z M234.323,483.47v-3.208
					c-0.396-0.615-1.245-1.143-2.124-1.143c-1.421,0-2.27,1.172-2.27,2.739c0,1.567,0.849,2.724,2.27,2.724
					C233.077,484.584,233.927,484.086,234.323,483.47z"/>
				<path style="fill:#121212;" d="M240.665,485.389v-9.77h1.099v3.765c0.572-0.776,1.421-1.245,2.388-1.245
					c1.845,0,3.149,1.465,3.149,3.721c0,2.299-1.304,3.706-3.149,3.706c-0.996,0-1.86-0.513-2.388-1.23v1.055H240.665z
					 M243.872,484.584c1.436,0,2.285-1.157,2.285-2.724c0-1.568-0.85-2.739-2.285-2.739c-0.864,0-1.728,0.527-2.109,1.143v3.208
					C242.144,484.086,243.008,484.584,243.872,484.584z"/>
				<path style="fill:#121212;" d="M248.501,487.162c0.161,0.073,0.425,0.117,0.601,0.117c0.483,0,0.805-0.161,1.055-0.747
					l0.469-1.069l-2.959-7.148h1.187l2.358,5.801l2.344-5.801h1.201l-3.545,8.51c-0.425,1.025-1.143,1.421-2.08,1.435
					c-0.234,0-0.601-0.044-0.806-0.103L248.501,487.162z"/>
			</g>
		</g>
	</g>
</g>
</svg>
